<svg xmlns="http://www.w3.org/2000/svg" xmlns:xlink="http://www.w3.org/1999/xlink" width="500" zoomAndPan="magnify" viewBox="0 0 375 374.999991" height="500" preserveAspectRatio="xMidYMid meet" version="1.0"><defs><clipPath id="2c5f3e64f4"><path d="M 116 119 L 346.40625 119 L 346.40625 274.429688 L 116 274.429688 Z M 116 119 " clip-rule="nonzero"/></clipPath><clipPath id="e35a3de2c9"><path d="M 298.109375 166.164062 C 289.507812 138.441406 263.789062 119.34375 234.476562 119.34375 C 205.164062 119.34375 181.328125 137.003906 171.808594 163.292969 C 170.964844 165.625 172.171875 168.207031 174.507812 169.050781 C 176.847656 169.894531 179.421875 168.691406 180.269531 166.351562 C 188.5 143.613281 210.289062 128.335938 234.476562 128.335938 C 260.765625 128.335938 283.714844 146.089844 290.28125 171.503906 C 290.769531 173.402344 292.429688 174.757812 294.386719 174.867188 C 318.429688 176.171875 337.265625 196.078125 337.265625 220.179688 C 337.265625 244.28125 316.910156 265.5625 291.882812 265.5625 L 138.738281 265.5625 C 133.449219 265.5625 128.222656 264.210938 123.628906 261.664062 C 121.457031 260.460938 118.71875 261.246094 117.515625 263.417969 C 116.308594 265.589844 117.097656 268.324219 119.269531 269.53125 C 125.191406 272.8125 131.925781 274.554688 138.738281 274.554688 L 291.882812 274.554688 C 321.867188 274.554688 346.257812 250.164062 346.257812 220.179688 C 346.257812 192.390625 325.359375 169.261719 298.101562 166.15625 Z M 298.109375 166.164062 " clip-rule="nonzero"/></clipPath><clipPath id="06298afeb7"><path d="M 156 178 L 214 178 L 214 188 L 156 188 Z M 156 178 " clip-rule="nonzero"/></clipPath><clipPath id="bba292e217"><path d="M 161.253906 187.332031 L 208.785156 187.332031 C 211.269531 187.332031 213.28125 185.316406 213.28125 182.835938 C 213.28125 180.351562 211.269531 178.339844 208.785156 178.339844 L 161.253906 178.339844 C 158.769531 178.339844 156.757812 180.351562 156.757812 182.835938 C 156.757812 185.316406 158.769531 187.332031 161.253906 187.332031 Z M 161.253906 187.332031 " clip-rule="nonzero"/></clipPath><clipPath id="471e712f1e"><path d="M 219 178 L 247 178 L 247 188 L 219 188 Z M 219 178 " clip-rule="nonzero"/></clipPath><clipPath id="3c5ee3b7fa"><path d="M 242.074219 187.332031 C 244.558594 187.332031 246.570312 185.316406 246.570312 182.835938 C 246.570312 180.351562 244.558594 178.339844 242.074219 178.339844 L 223.53125 178.339844 C 221.046875 178.339844 219.035156 180.351562 219.035156 182.835938 C 219.035156 185.316406 221.046875 187.332031 223.53125 187.332031 Z M 242.074219 187.332031 " clip-rule="nonzero"/></clipPath><clipPath id="84b2be5508"><path d="M 217 195 L 233 195 L 233 205 L 217 205 Z M 217 195 " clip-rule="nonzero"/></clipPath><clipPath id="fd9e7dcb5a"><path d="M 217.476562 199.519531 C 217.476562 202 219.488281 204.015625 221.972656 204.015625 L 227.535156 204.015625 C 230.015625 204.015625 232.03125 202 232.03125 199.519531 C 232.03125 197.035156 230.015625 195.023438 227.535156 195.023438 L 221.972656 195.023438 C 219.488281 195.023438 217.476562 197.035156 217.476562 199.519531 Z M 217.476562 199.519531 " clip-rule="nonzero"/></clipPath><clipPath id="ff74c932cc"><path d="M 264 211 L 281 211 L 281 221 L 264 221 Z M 264 211 " clip-rule="nonzero"/></clipPath><clipPath id="d57af143b7"><path d="M 276.289062 220.707031 C 278.769531 220.707031 280.785156 218.691406 280.785156 216.210938 C 280.785156 213.726562 278.769531 211.714844 276.289062 211.714844 L 268.882812 211.714844 C 266.402344 211.714844 264.386719 213.726562 264.386719 216.210938 C 264.386719 218.691406 266.402344 220.707031 268.882812 220.707031 Z M 276.289062 220.707031 " clip-rule="nonzero"/></clipPath><clipPath id="3d42f7b4d4"><path d="M 245 245 L 263 245 L 263 255 L 245 255 Z M 245 245 " clip-rule="nonzero"/></clipPath><clipPath id="fe93008e40"><path d="M 245.972656 249.59375 C 245.972656 252.074219 247.984375 254.089844 250.46875 254.089844 L 257.871094 254.089844 C 260.355469 254.089844 262.367188 252.074219 262.367188 249.59375 C 262.367188 247.109375 260.355469 245.097656 257.871094 245.097656 L 250.46875 245.097656 C 247.984375 245.097656 245.972656 247.109375 245.972656 249.59375 Z M 245.972656 249.59375 " clip-rule="nonzero"/></clipPath><clipPath id="7849983ae0"><path d="M 28.40625 223 L 144 223 L 144 243 L 28.40625 243 Z M 28.40625 223 " clip-rule="nonzero"/></clipPath><clipPath id="28af4804e4"><path d="M 138.902344 237.398438 C 141.386719 237.398438 143.398438 235.382812 143.398438 232.902344 C 143.398438 230.417969 141.386719 228.40625 138.902344 228.40625 L 45.859375 228.40625 C 44.285156 225.625 41.3125 223.742188 37.890625 223.742188 C 32.832031 223.742188 28.742188 227.84375 28.742188 232.894531 C 28.742188 237.945312 32.839844 242.042969 37.890625 242.042969 C 41.3125 242.042969 44.285156 240.167969 45.859375 237.390625 L 138.902344 237.390625 Z M 138.902344 237.398438 " clip-rule="nonzero"/></clipPath><clipPath id="15d8b25e49"><path d="M 148 228 L 218 228 L 218 238 L 148 238 Z M 148 228 " clip-rule="nonzero"/></clipPath><clipPath id="c25b3c1102"><path d="M 153.277344 228.40625 C 150.796875 228.40625 148.785156 230.417969 148.785156 232.902344 C 148.785156 235.382812 150.796875 237.398438 153.277344 237.398438 L 212.847656 237.398438 C 215.332031 237.398438 217.34375 235.382812 217.34375 232.902344 C 217.34375 230.417969 215.332031 228.40625 212.847656 228.40625 Z M 153.277344 228.40625 " clip-rule="nonzero"/></clipPath><clipPath id="c9d7ea6737"><path d="M 70 240 L 240 240 L 240 259 L 70 259 Z M 70 240 " clip-rule="nonzero"/></clipPath><clipPath id="59b655464a"><path d="M 234.664062 254.089844 C 237.148438 254.089844 239.160156 252.074219 239.160156 249.59375 C 239.160156 247.109375 237.148438 245.097656 234.664062 245.097656 L 87.980469 245.097656 C 86.40625 242.316406 83.433594 240.433594 80.011719 240.433594 C 74.953125 240.433594 70.863281 244.535156 70.863281 249.585938 C 70.863281 254.636719 74.960938 258.734375 80.011719 258.734375 C 83.433594 258.734375 86.40625 256.859375 87.980469 254.082031 L 234.65625 254.082031 Z M 234.664062 254.089844 " clip-rule="nonzero"/></clipPath><clipPath id="f9d87943ec"><path d="M 95 173 L 147 173 L 147 192 L 95 192 Z M 95 173 " clip-rule="nonzero"/></clipPath><clipPath id="3702a7414a"><path d="M 104.835938 191.984375 C 108.257812 191.984375 111.230469 190.109375 112.804688 187.332031 L 142.09375 187.332031 C 144.578125 187.332031 146.589844 185.316406 146.589844 182.835938 C 146.589844 180.351562 144.578125 178.339844 142.09375 178.339844 L 112.804688 178.339844 C 111.230469 175.558594 108.257812 173.675781 104.835938 173.675781 C 99.777344 173.675781 95.6875 177.777344 95.6875 182.828125 C 95.6875 187.878906 99.785156 191.976562 104.835938 191.976562 Z M 104.835938 191.984375 " clip-rule="nonzero"/></clipPath><clipPath id="d61b5dd8fa"><path d="M 41 190 L 214 190 L 214 209 L 41 209 Z M 41 190 " clip-rule="nonzero"/></clipPath><clipPath id="091dd602cd"><path d="M 50.816406 208.675781 C 54.234375 208.675781 57.207031 206.800781 58.78125 204.019531 L 208.785156 204.019531 C 211.269531 204.019531 213.28125 202.007812 213.28125 199.527344 C 213.28125 197.042969 211.269531 195.03125 208.785156 195.03125 L 58.78125 195.03125 C 57.207031 192.25 54.234375 190.367188 50.816406 190.367188 C 45.757812 190.367188 41.664062 194.46875 41.664062 199.519531 C 41.664062 204.570312 45.761719 208.667969 50.816406 208.667969 Z M 50.816406 208.675781 " clip-rule="nonzero"/></clipPath><clipPath id="42167c7d10"><path d="M 61 207 L 259 207 L 259 226 L 61 226 Z M 61 207 " clip-rule="nonzero"/></clipPath><clipPath id="94e650f96a"><path d="M 70.855469 207.058594 C 65.796875 207.058594 61.703125 211.160156 61.703125 216.210938 C 61.703125 221.261719 65.804688 225.359375 70.855469 225.359375 C 74.273438 225.359375 77.25 223.484375 78.820312 220.707031 L 254.164062 220.707031 C 256.644531 220.707031 258.660156 218.691406 258.660156 216.210938 C 258.660156 213.726562 256.644531 211.714844 254.164062 211.714844 L 78.828125 211.714844 C 77.253906 208.9375 74.28125 207.050781 70.863281 207.050781 Z M 70.855469 207.058594 " clip-rule="nonzero"/></clipPath><clipPath id="d37744ad14"><path d="M 298 135 L 327 135 L 327 164 L 298 164 Z M 298 135 " clip-rule="nonzero"/></clipPath><clipPath id="5572c21728"><path d="M 326.117188 149.445312 C 326.117188 150.347656 326.027344 151.242188 325.851562 152.128906 C 325.675781 153.015625 325.414062 153.875 325.070312 154.710938 C 324.722656 155.546875 324.300781 156.339844 323.796875 157.089844 C 323.296875 157.839844 322.722656 158.535156 322.085938 159.175781 C 321.445312 159.8125 320.75 160.386719 320 160.886719 C 319.25 161.390625 318.457031 161.8125 317.621094 162.160156 C 316.785156 162.503906 315.925781 162.765625 315.039062 162.941406 C 314.152344 163.117188 313.257812 163.207031 312.355469 163.207031 C 311.449219 163.207031 310.554688 163.117188 309.671875 162.941406 C 308.785156 162.765625 307.921875 162.503906 307.089844 162.160156 C 306.253906 161.8125 305.460938 161.390625 304.710938 160.886719 C 303.957031 160.386719 303.261719 159.8125 302.625 159.175781 C 301.984375 158.535156 301.414062 157.839844 300.914062 157.089844 C 300.410156 156.339844 299.988281 155.546875 299.640625 154.710938 C 299.296875 153.875 299.035156 153.015625 298.859375 152.128906 C 298.679688 151.242188 298.59375 150.347656 298.59375 149.445312 C 298.59375 148.539062 298.679688 147.644531 298.859375 146.761719 C 299.035156 145.875 299.296875 145.011719 299.640625 144.179688 C 299.988281 143.34375 300.410156 142.550781 300.914062 141.800781 C 301.414062 141.046875 301.984375 140.351562 302.625 139.714844 C 303.261719 139.074219 303.957031 138.503906 304.710938 138.003906 C 305.460938 137.5 306.253906 137.078125 307.089844 136.730469 C 307.921875 136.386719 308.785156 136.125 309.671875 135.949219 C 310.554688 135.769531 311.449219 135.683594 312.355469 135.683594 C 313.257812 135.683594 314.152344 135.769531 315.039062 135.949219 C 315.925781 136.125 316.785156 136.386719 317.621094 136.730469 C 318.457031 137.078125 319.25 137.5 320 138.003906 C 320.75 138.503906 321.445312 139.074219 322.085938 139.714844 C 322.722656 140.351562 323.296875 141.046875 323.796875 141.800781 C 324.300781 142.550781 324.722656 143.34375 325.070312 144.179688 C 325.414062 145.011719 325.675781 145.875 325.851562 146.761719 C 326.027344 147.644531 326.117188 148.539062 326.117188 149.445312 Z M 326.117188 149.445312 " clip-rule="nonzero"/></clipPath><clipPath id="cd1ad08e5e"><path d="M 299 100.429688 L 315 100.429688 L 315 116 L 299 116 Z M 299 100.429688 " clip-rule="nonzero"/></clipPath><clipPath id="25f820a8c4"><path d="M 314.195312 107.726562 C 314.195312 108.207031 314.148438 108.679688 314.054688 109.152344 C 313.960938 109.621094 313.824219 110.078125 313.640625 110.519531 C 313.457031 110.960938 313.230469 111.382812 312.964844 111.78125 C 312.699219 112.179688 312.398438 112.546875 312.058594 112.886719 C 311.71875 113.226562 311.351562 113.527344 310.953125 113.792969 C 310.554688 114.058594 310.132812 114.285156 309.691406 114.46875 C 309.25 114.652344 308.792969 114.789062 308.324219 114.882812 C 307.851562 114.976562 307.378906 115.023438 306.898438 115.023438 C 306.421875 115.023438 305.945312 114.976562 305.476562 114.882812 C 305.007812 114.789062 304.550781 114.652344 304.105469 114.46875 C 303.664062 114.285156 303.246094 114.058594 302.847656 113.792969 C 302.449219 113.527344 302.078125 113.226562 301.742188 112.886719 C 301.402344 112.546875 301.097656 112.179688 300.832031 111.78125 C 300.566406 111.382812 300.34375 110.960938 300.160156 110.519531 C 299.976562 110.078125 299.835938 109.621094 299.742188 109.152344 C 299.648438 108.679688 299.605469 108.207031 299.605469 107.726562 C 299.605469 107.25 299.648438 106.773438 299.742188 106.304688 C 299.835938 105.835938 299.976562 105.378906 300.160156 104.933594 C 300.34375 104.492188 300.566406 104.074219 300.832031 103.675781 C 301.097656 103.277344 301.402344 102.90625 301.742188 102.570312 C 302.078125 102.230469 302.449219 101.925781 302.847656 101.660156 C 303.246094 101.394531 303.664062 101.171875 304.105469 100.988281 C 304.550781 100.804688 305.007812 100.664062 305.476562 100.570312 C 305.945312 100.476562 306.421875 100.429688 306.898438 100.429688 C 307.378906 100.429688 307.851562 100.476562 308.324219 100.570312 C 308.792969 100.664062 309.25 100.804688 309.691406 100.988281 C 310.132812 101.171875 310.554688 101.394531 310.953125 101.660156 C 311.351562 101.925781 311.71875 102.230469 312.058594 102.570312 C 312.398438 102.90625 312.699219 103.277344 312.964844 103.675781 C 313.230469 104.074219 313.457031 104.492188 313.640625 104.933594 C 313.824219 105.378906 313.960938 105.835938 314.054688 106.304688 C 314.148438 106.773438 314.195312 107.25 314.195312 107.726562 Z M 314.195312 107.726562 " clip-rule="nonzero"/></clipPath><clipPath id="09ee27323b"><path d="M 286 123 L 297 123 L 297 133 L 286 133 Z M 286 123 " clip-rule="nonzero"/></clipPath><clipPath id="ee4d36aaae"><path d="M 296.058594 127.960938 C 296.058594 128.277344 296.03125 128.589844 295.96875 128.898438 C 295.90625 129.207031 295.816406 129.503906 295.695312 129.796875 C 295.574219 130.085938 295.425781 130.363281 295.253906 130.625 C 295.078125 130.886719 294.878906 131.128906 294.65625 131.351562 C 294.433594 131.574219 294.191406 131.769531 293.929688 131.945312 C 293.667969 132.121094 293.394531 132.269531 293.101562 132.386719 C 292.8125 132.507812 292.511719 132.601562 292.203125 132.660156 C 291.894531 132.722656 291.582031 132.753906 291.269531 132.753906 C 290.953125 132.753906 290.640625 132.722656 290.332031 132.660156 C 290.023438 132.601562 289.726562 132.507812 289.433594 132.386719 C 289.144531 132.269531 288.867188 132.121094 288.605469 131.945312 C 288.34375 131.769531 288.101562 131.574219 287.878906 131.351562 C 287.65625 131.128906 287.460938 130.886719 287.285156 130.625 C 287.109375 130.363281 286.960938 130.085938 286.84375 129.796875 C 286.722656 129.503906 286.628906 129.207031 286.570312 128.898438 C 286.507812 128.589844 286.476562 128.277344 286.476562 127.960938 C 286.476562 127.648438 286.507812 127.335938 286.570312 127.027344 C 286.628906 126.71875 286.722656 126.417969 286.84375 126.128906 C 286.960938 125.835938 287.109375 125.5625 287.285156 125.300781 C 287.460938 125.039062 287.65625 124.796875 287.878906 124.574219 C 288.101562 124.351562 288.34375 124.152344 288.605469 123.976562 C 288.867188 123.804688 289.144531 123.65625 289.433594 123.535156 C 289.726562 123.414062 290.023438 123.324219 290.335938 123.261719 C 290.640625 123.199219 290.953125 123.171875 291.269531 123.171875 C 291.582031 123.171875 291.894531 123.199219 292.203125 123.261719 C 292.511719 123.324219 292.8125 123.414062 293.101562 123.535156 C 293.394531 123.65625 293.667969 123.804688 293.929688 123.976562 C 294.191406 124.152344 294.433594 124.351562 294.65625 124.574219 C 294.878906 124.796875 295.078125 125.039062 295.253906 125.300781 C 295.425781 125.5625 295.574219 125.835938 295.695312 126.128906 C 295.816406 126.417969 295.90625 126.71875 295.96875 127.027344 C 296.03125 127.335938 296.058594 127.648438 296.058594 127.960938 Z M 296.058594 127.960938 " clip-rule="nonzero"/></clipPath></defs><g clip-path="url(#2c5f3e64f4)"><g clip-path="url(#e35a3de2c9)"><path fill="#ffffff" d="M 116.308594 119.34375 L 116.308594 274.429688 L 346.257812 274.429688 L 346.257812 119.34375 Z M 116.308594 119.34375 " fill-opacity="1" fill-rule="nonzero"/></g></g><g clip-path="url(#06298afeb7)"><g clip-path="url(#bba292e217)"><path fill="#ffffff" d="M 156.757812 178.339844 L 156.757812 187.332031 L 213.28125 187.332031 L 213.28125 178.339844 Z M 156.757812 178.339844 " fill-opacity="1" fill-rule="nonzero"/></g></g><g clip-path="url(#471e712f1e)"><g clip-path="url(#3c5ee3b7fa)"><path fill="#ffffff" d="M 219.035156 178.339844 L 219.035156 187.332031 L 246.570312 187.332031 L 246.570312 178.339844 Z M 219.035156 178.339844 " fill-opacity="1" fill-rule="nonzero"/></g></g><g clip-path="url(#84b2be5508)"><g clip-path="url(#fd9e7dcb5a)"><path fill="#ffffff" d="M 217.476562 195.023438 L 217.476562 204.015625 L 232.03125 204.015625 L 232.03125 195.023438 Z M 217.476562 195.023438 " fill-opacity="1" fill-rule="nonzero"/></g></g><g clip-path="url(#ff74c932cc)"><g clip-path="url(#d57af143b7)"><path fill="#ffffff" d="M 264.386719 211.714844 L 264.386719 220.707031 L 280.785156 220.707031 L 280.785156 211.714844 Z M 264.386719 211.714844 " fill-opacity="1" fill-rule="nonzero"/></g></g><g clip-path="url(#3d42f7b4d4)"><g clip-path="url(#fe93008e40)"><path fill="#ffffff" d="M 245.972656 245.097656 L 245.972656 254.089844 L 262.367188 254.089844 L 262.367188 245.097656 Z M 245.972656 245.097656 " fill-opacity="1" fill-rule="nonzero"/></g></g><g clip-path="url(#7849983ae0)"><g clip-path="url(#28af4804e4)"><path fill="#ffffff" d="M 28.742188 223.742188 L 28.742188 242.042969 L 143.398438 242.042969 L 143.398438 223.742188 Z M 28.742188 223.742188 " fill-opacity="1" fill-rule="nonzero"/></g></g><g clip-path="url(#15d8b25e49)"><g clip-path="url(#c25b3c1102)"><path fill="#ffffff" d="M 148.785156 228.40625 L 148.785156 237.398438 L 217.34375 237.398438 L 217.34375 228.40625 Z M 148.785156 228.40625 " fill-opacity="1" fill-rule="nonzero"/></g></g><g clip-path="url(#c9d7ea6737)"><g clip-path="url(#59b655464a)"><path fill="#ffffff" d="M 70.863281 240.433594 L 70.863281 258.734375 L 239.160156 258.734375 L 239.160156 240.433594 Z M 70.863281 240.433594 " fill-opacity="1" fill-rule="nonzero"/></g></g><g clip-path="url(#f9d87943ec)"><g clip-path="url(#3702a7414a)"><path fill="#ffffff" d="M 95.6875 173.675781 L 95.6875 191.984375 L 146.589844 191.984375 L 146.589844 173.675781 Z M 95.6875 173.675781 " fill-opacity="1" fill-rule="nonzero"/></g></g><g clip-path="url(#d61b5dd8fa)"><g clip-path="url(#091dd602cd)"><path fill="#ffffff" d="M 41.664062 190.367188 L 41.664062 208.675781 L 213.28125 208.675781 L 213.28125 190.367188 Z M 41.664062 190.367188 " fill-opacity="1" fill-rule="nonzero"/></g></g><g clip-path="url(#42167c7d10)"><g clip-path="url(#94e650f96a)"><path fill="#ffffff" d="M 61.703125 207.050781 L 61.703125 225.359375 L 258.660156 225.359375 L 258.660156 207.050781 Z M 61.703125 207.050781 " fill-opacity="1" fill-rule="nonzero"/></g></g><g clip-path="url(#d37744ad14)"><g clip-path="url(#5572c21728)"><path fill="#ffffff" d="M 298.59375 135.683594 L 298.59375 163.207031 L 326.117188 163.207031 L 326.117188 135.683594 Z M 298.59375 135.683594 " fill-opacity="1" fill-rule="nonzero"/></g></g><g clip-path="url(#cd1ad08e5e)"><g clip-path="url(#25f820a8c4)"><path fill="#ffffff" d="M 299.605469 100.429688 L 299.605469 115.023438 L 314.195312 115.023438 L 314.195312 100.429688 Z M 299.605469 100.429688 " fill-opacity="1" fill-rule="nonzero"/></g></g><g clip-path="url(#09ee27323b)"><g clip-path="url(#ee4d36aaae)"><path fill="#ffffff" d="M 286.476562 123.171875 L 286.476562 132.753906 L 296.058594 132.753906 L 296.058594 123.171875 Z M 286.476562 123.171875 " fill-opacity="1" fill-rule="nonzero"/></g></g></svg>